<svg width="111" height="111" viewBox="0 0 111 111" fill="none" xmlns="http://www.w3.org/2000/svg">
<path d="M55.6433 105.612C83.513 105.612 106.106 83.019 106.106 55.1492C106.106 27.2795 83.513 4.68665 55.6433 4.68665C27.7735 4.68665 5.18066 27.2795 5.18066 55.1492C5.18066 83.019 27.7735 105.612 55.6433 105.612Z" stroke="black" stroke-width="2"/>
<path d="M55.433 109.866C85.4955 109.866 109.866 85.4955 109.866 55.433C109.866 25.3705 85.4955 1 55.433 1C25.3705 1 1 25.3705 1 55.433C1 85.4955 25.3705 109.866 55.433 109.866Z" stroke="black" stroke-width="2"/>
<path d="M61.1937 5.20105L43.3045 22.5612M43.3045 22.5612L24.6659 41.2288V15.2914V69.4735L5.29199 50.4067L42.1023 87.3293H16.6945H68.58L50.0941 105.299L86.8237 69.4735V94.5026V42.3649L105.592 60.6992L66.4811 22.5612H93.8871H43.3045Z" stroke="black" stroke-width="2"/>
<path d="M55.4725 32.0411C54.657 32.4254 53.8106 33.1172 52.6514 34.4033L51.6644 35.4761L51.5563 34.8303C51.349 33.7572 51.0338 33.0954 50.7416 33.1325C50.4122 33.1837 49.4018 34.1388 48.4316 35.3108C47.8304 36.036 47.5506 36.5229 46.9055 37.9939C46.1677 39.6377 46.096 39.8656 46.0324 40.8937C45.9527 42.1285 46.0957 43.3105 46.4874 44.7572L46.4473 45.6622L46.0536 46.9508C44.9499 48.9663 43.9313 51.372 43.7685 52.4166C43.4315 54.5313 43.6779 56.5404 44.5741 58.8412C45.6751 61.7086 47.4644 64.1348 51.2015 67.8489C54.5405 71.1544 55.792 72.8339 56.7374 75.2641C57.4668 76.8231 56.2989 80.5021 56.4392 80.5649C56.6557 80.6621 58.192 76.8828 57.7627 75.734C57.081 73.3303 55.3266 70.528 51.9101 67.1568C49.7128 64.9916 48.752 64.018 47.9746 62.919C45.4509 59.3667 44.3125 56.3593 44.6448 53.2319C44.8193 51.7179 45.2861 50.5313 46.4473 48.3886C47.0156 47.3269 47.3274 45.8577 47.3692 45.6622C47.3984 45.4608 47.4333 44.9071 47.2685 44.2514C46.3092 40.5903 46.9958 38.2866 50.0938 35.0688C50.4951 34.6522 50.8002 34.5643 50.8002 34.5643V35.0688L50.9009 35.9771L50.5983 36.7845C49.9864 37.7039 49.1709 39.8028 49.1066 40.6621C48.9938 42.0046 50.3665 43.8583 51.1565 43.4626C51.8186 43.1474 52.3454 40.8719 52.2127 37.9951C52.1751 37.0903 52.3102 36.4779 52.4146 36.2797C52.9486 35.2947 55.139 33.3534 55.139 33.3534C55.139 33.3534 56.0718 33.0127 56.148 34.8303C56.5058 37.4099 56.7223 38.8576 57.2579 39.7107C57.8347 40.643 58.7393 41.0896 60.0897 41.3897C61.4713 41.6884 63.1647 42.5526 64.0188 43.2422C64.9308 43.9733 65.4882 44.8017 66.0367 45.9668C66.5378 47.0337 67.0534 47.7584 67.5505 47.9816C67.716 48.056 68.7473 48.0006 69.3529 47.9816C69.9586 47.9625 70.4119 48.3141 70.5777 48.3886C71.151 48.6459 71.0713 48.948 70.8803 51.113C70.5965 54.2008 69.399 55.9614 65.6748 57.5049C63.659 58.3454 63.2866 58.5609 62.5436 59.3296C61.6737 60.2099 61.1397 61.1949 60.8827 62.3811C60.535 63.9398 61.597 68.5696 61.597 68.5696C61.597 68.5696 61.8996 67.1568 61.597 65.1388C61.3493 63.8488 61.7158 62.4318 62.4043 61.1026C63.1684 59.6391 63.5299 59.5706 65.6748 58.6809C70.1788 56.7987 71.5852 54.2636 71.7802 50.248C71.9016 47.7609 71.5164 47.2207 69.6684 47.2789C67.9763 47.3309 67.5913 47.0968 66.973 45.6095C66.5779 44.6819 65.696 43.4748 64.8323 42.7043C63.8458 41.8326 61.6445 40.6292 60.2852 40.4169C58.3661 40.1219 57.6684 39.1206 57.0798 34.9063C56.7594 32.6188 56.6644 32.2853 56.3138 31.9748C56.1383 31.8197 55.9327 31.8345 55.4725 32.0411ZM51.4316 38.5867C51.443 40.5054 51.1981 41.6072 50.9009 42.1322C50.9009 42.1322 50.5238 42.4277 50.1948 41.7287C49.8526 41.024 49.9694 40.8808 50.2955 39.7107C50.5674 38.7302 51.3346 37.1704 51.3151 37.141C51.3787 37.1697 51.4247 37.8179 51.4316 38.5867Z" fill="black"/>
</svg>
