<svg width="191" height="44" viewBox="0 0 191 44" fill="none" xmlns="http://www.w3.org/2000/svg">
<path d="M43.7433 0.54248H34.3232V9.5304H43.7433V0.54248Z" fill="#3A3A3C"/>
<path opacity="0.8" d="M26.5831 0.54248H17.1631V9.5304H26.5831V0.54248Z" fill="#58585A"/>
<path opacity="0.5" d="M9.42004 0.54248H0V9.5304H9.42004V0.54248Z" fill="#949599"/>
<path opacity="0.8" d="M26.5831 17.7031H17.1631V26.691H26.5831V17.7031Z" fill="#58585A"/>
<path opacity="0.8" d="M26.5831 34.8643H17.1631V43.8522H26.5831V34.8643Z" fill="#58585A"/>
<path d="M43.7433 17.7031H34.3232V43.8518H43.7433V17.7031Z" fill="black"/>
<path d="M50.1211 25.7842C53.6293 25.7842 56.9938 24.4545 59.4745 22.0876C61.9551 19.7208 63.3487 16.5106 63.3487 13.1633C63.3487 9.81608 61.9551 6.60591 59.4745 4.23904C56.9938 1.87217 53.6293 0.54248 50.1211 0.54248V8.58613C51.3934 8.58613 52.6136 9.06837 53.5133 9.92676C54.4129 10.7852 54.9184 11.9494 54.9184 13.1633C54.9184 14.3773 54.4129 15.5415 53.5133 16.3999C52.6136 17.2583 51.3934 17.7405 50.1211 17.7405V25.7842Z" fill="black"/>
<path d="M90.3016 33.768V31.1862C90.2261 28.4776 87.9134 26.2686 85.1502 26.2686H71.8809V43.8518H74.0659V38.6856H85.1632C86.523 38.6682 87.8217 38.144 88.7819 37.2251C89.7421 36.3062 90.2875 35.0655 90.3016 33.768ZM74.0607 28.3559H85.1632C85.9497 28.3565 86.7038 28.6549 87.26 29.1856C87.8161 29.7162 88.1289 30.4357 88.1296 31.1862V33.768C88.1289 34.5187 87.8162 35.2385 87.2601 35.7695C86.7041 36.3005 85.95 36.5995 85.1632 36.6008H74.0607V28.3559Z" fill="black"/>
<path d="M106.678 43.8519H114.257C115.618 43.8352 116.919 43.3117 117.882 42.3931C118.845 41.4744 119.393 40.2333 119.411 38.9343V26.2612H117.223V34.0092H106.136C105.35 34.0085 104.596 33.7101 104.04 33.1795C103.484 32.6488 103.171 31.9293 103.17 31.1789V26.2687H100.982V31.1863C100.984 32.49 101.528 33.7396 102.494 34.6614C103.46 35.5832 104.77 36.102 106.136 36.104H117.223V38.9343C117.223 39.6847 116.91 40.4042 116.354 40.9349C115.798 41.4655 115.043 41.7639 114.257 41.7646H106.678C105.937 41.7643 105.222 41.4991 104.675 41.0213C104.128 40.5435 103.788 39.8876 103.722 39.1828H101.537C101.613 40.4384 102.186 41.6196 103.141 42.4868C104.095 43.3539 105.36 43.842 106.678 43.8519Z" fill="black"/>
<path d="M146.322 30.9377H148.505C148.296 28.341 146.044 26.2686 143.366 26.2686H135.246C132.358 26.3431 130.092 28.505 130.092 31.1862V38.9341C130.093 40.238 130.637 41.488 131.603 42.41C132.569 43.3319 133.879 43.8505 135.246 43.8518H143.366C144.683 43.8343 145.944 43.3439 146.897 42.4784C147.851 41.6129 148.428 40.436 148.513 39.1826H146.322C146.256 39.8873 145.916 40.5428 145.369 41.0205C144.822 41.4982 144.108 41.7636 143.366 41.7644H135.246C134.459 41.7638 133.705 41.4655 133.148 40.9349C132.592 40.4043 132.278 39.6848 132.277 38.9341V31.1862C132.278 30.4355 132.592 29.716 133.148 29.1854C133.705 28.6549 134.459 28.3565 135.246 28.3559H143.366C144.108 28.3568 144.822 28.6221 145.369 29.0998C145.916 29.5775 146.256 30.2331 146.322 30.9377Z" fill="black"/>
<path d="M161.76 26.2686H159.575V43.8493H161.76V26.2686Z" fill="black"/>
<path d="M191 26.2686H172.574V28.3559H180.695V43.8518H182.88V28.3559H191V26.2686Z" fill="black"/>
</svg>
